# xmcd CD database file
#
# Track frame offsets:
#	182
#	17580
#	33722
#
# Disc length: 708 seconds
#
# Revision: 0
# Processed by: cddbd v1.5.1PL0 Copyright (c) Steve Scherf et al.
# Submitted via: CDex 1.51
#
DISCID=1c02c203
DTITLE=Leningrad Cowboys - Where's The Moon
DYEAR=1996
DGENRE=Country
TTITLE0=Where's The Moon
TTITLE1=Universal Fields
TTITLE2=Answering Machine Space Messages
EXTD=YEAR: 1996
EXTT0=
EXTT1=
EXTT2=
PLAYORDER=
